<?xml version="1.0" encoding="utf-8"?>
<!-- Generator: Adobe Illustrator 23.0.3, SVG Export Plug-In . SVG Version: 6.00 Build 0)  -->
<svg version="1.1" id="Layer_1" xmlns="http://www.w3.org/2000/svg" xmlns:xlink="http://www.w3.org/1999/xlink" x="0px" y="0px"
	 viewBox="0 0 117.7 118.8" style="enable-background:new 0 0 117.7 118.8;" xml:space="preserve">
<style type="text/css">
	.st0{fill:#35BDEF;}
	.st1{fill:#F39300;}
	.st2{fill:#E8338A;}
	.st3{fill:#A2C62B;}
</style>
<g>
	<g>
		<path class="st0" d="M44,93.1c-1.2-1.3-1.5-3.1-1.1-4.7c-0.7-0.4-1.3-0.8-1.8-1.4L25.9,69.4c-1.9-0.3-3.7-1.3-5-2.8l-3.8-4.3
			l-0.2,0.1c-0.3,0.2-1.1,0.7-1.7,1.5L0.6,84.1c-0.9,1.2-0.8,2.9,0.2,4l21.5,24.7c2,2.3,5.4,2.9,8.1,1.4l21.4-12.2L44,93.1z"/>
		<path class="st1" d="M99.2,59.6L99.2,59.6c-0.5,0.3-0.6,0.9-0.2,1.3l16.4,18.8L93.9,91.9c-2.7,1.5-6.1,0.9-8.1-1.4L71,73.5
			c-2-0.3-3.8-1.3-5.2-2.8L61.7,66l-0.1,0.1c-0.3,0.2-1.1,0.7-1.7,1.5L45.3,87.7c-0.9,1.2-0.8,2.9,0.2,4L67,116.5
			c2,2.3,5.4,2.9,8.1,1.4L99,104.3c0.8-0.5,1.5-1.1,2.1-1.8l16.1-22.2c0,0,0.1-0.1,0.1-0.1l0,0c0.2-0.3,0.1-0.7-0.1-0.9l-16.9-19.4
			C100,59.4,99.5,59.4,99.2,59.6z"/>
		<path class="st2" d="M117.5,33c0.2-0.3,0.1-0.7-0.1-0.9L95.2,6.5c-2.3-2.7-6.1-3.2-9.1-1.2L61.9,19c-0.3,0.2-1.1,0.7-1.7,1.5
			L45.6,40.6c-0.9,1.2-0.8,2.9,0.2,4l21.5,24.7c2,2.3,5.4,2.9,8.1,1.4l23.9-13.6c0.8-0.5,1.5-1.1,2.1-1.8l16.1-22.2
			C117.5,33.1,117.5,33.1,117.5,33L117.5,33z M94.2,44.9c-2.7,1.5-6.1,0.9-8.1-1.4L65.6,19.9c-0.2-0.3-0.5-0.5-0.8-0.6L86.9,6.7
			l0.1,0c2.2-1.5,5.1-1.1,6.9,0.9l21.8,25L94.2,44.9z"/>
		<path class="st3" d="M44.3,46c-1.2-1.4-1.6-3.3-1-5c-0.8-0.4-1.5-0.9-2.1-1.6L20.7,15.8c-0.2-0.3-0.5-0.5-0.8-0.6L42,2.6l0.1,0
			c2.2-1.5,5.1-1.1,6.9,0.9l11.5,13.3c0.3,0.3,0.7,0.4,1,0.2l0,0c0.5-0.3,0.6-0.9,0.2-1.3L50.2,2.4c-2.3-2.7-6.1-3.2-9.1-1.2
			L17,14.9c-0.3,0.2-1.1,0.7-1.7,1.5L0.7,36.6c-0.9,1.2-0.8,2.9,0.2,4l21.5,24.7c2,2.3,5.4,2.9,8.1,1.4l21.3-12.1L44.3,46z"/>
	</g>
</g>
</svg>
